<?xml version="1.0" standalone="no"?>
<!DOCTYPE svg PUBLIC "-//W3C//DTD SVG 20010904//EN"
 "http://www.w3.org/TR/2001/REC-SVG-20010904/DTD/svg10.dtd">
<svg version="1.0" xmlns="http://www.w3.org/2000/svg"
 width="438.000000pt" height="438.000000pt" viewBox="0 0 438.000000 438.000000"
 preserveAspectRatio="xMidYMid meet">
<metadata>
Created by potrace 1.14, written by Peter Selinger 2001-2017
</metadata>
<g transform="translate(0.000000,438.000000) scale(0.100000,-0.100000)"
fill="#000000" stroke="none">
<path d="M1 3896 c0 -267 4 -484 8 -483 3 1 6 -3 6 -8 0 -5 -3 -9 -8 -8 -4 2
-7 -8 -7 -22 0 -14 4 -25 10 -25 5 0 7 8 4 18 -4 11 1 8 15 -8 17 -20 21 -22
21 -7 0 21 16 23 24 2 3 -8 13 -15 22 -15 10 0 14 5 10 15 -10 26 42 31 65 6
20 -21 35 -29 24 -12 -10 17 15 23 30 8 8 -8 12 -16 10 -19 -2 -2 6 -5 18 -5
17 -2 18 0 7 7 -8 5 -11 12 -7 16 3 4 13 2 20 -4 13 -11 47 -10 66 2 5 4 12 0
15 -6 3 -9 8 -8 16 5 6 9 15 15 21 12 5 -4 9 -1 9 5 0 6 5 8 12 4 8 -5 4 -13
-11 -26 -13 -10 -18 -18 -13 -18 6 0 14 5 18 11 3 6 15 9 25 6 11 -3 19 -1 19
4 0 5 -5 9 -11 9 -5 0 -8 4 -4 10 3 5 12 7 20 4 8 -4 13 -10 10 -14 -3 -4 2
-10 9 -13 8 -3 17 -1 19 6 3 9 8 9 18 0 18 -18 29 -16 29 4 0 9 3 14 6 10 3
-3 19 9 35 26 15 18 29 27 29 20 0 -17 55 38 74 74 27 52 117 186 182 268 203
260 540 487 864 580 129 38 211 43 257 16 15 -9 11 -10 -22 -11 -52 0 -233
-42 -309 -70 -44 -17 -55 -25 -45 -32 11 -7 9 -8 -4 -4 -24 8 -166 -65 -198
-102 -13 -14 -17 -22 -9 -16 8 6 41 21 73 34 47 19 68 21 117 16 34 -4 60 -3
60 2 0 26 102 42 141 22 14 -8 27 -7 48 5 40 20 77 19 93 -2 12 -17 69 -53 82
-53 3 0 6 5 6 10 0 6 -6 10 -14 10 -8 0 -28 11 -43 25 l-28 24 25 1 c14 0 41
-10 60 -21 24 -15 49 -21 79 -20 57 2 106 -14 128 -43 24 -30 45 -42 37 -22
-8 22 44 21 75 0 18 -13 20 -18 10 -25 -8 -5 -27 -6 -42 -3 -19 4 -32 1 -40
-9 -7 -9 -21 -17 -32 -20 -11 -3 0 -5 26 -6 25 0 50 4 56 10 14 14 83 29 83
19 0 -5 7 -16 16 -25 13 -12 14 -19 5 -28 -20 -20 49 -38 109 -28 3 1 -8 12
-24 26 -16 14 -25 25 -19 25 13 0 53 -44 53 -59 0 -7 4 -10 8 -7 4 2 14 -5 21
-16 11 -18 11 -20 -3 -15 -10 4 -13 1 -9 -9 6 -15 -9 -12 -57 13 -22 12 -25
11 -28 -7 -2 -11 -14 -23 -27 -26 -36 -9 -134 15 -194 47 -30 16 -69 29 -87
29 -31 0 -83 17 -94 31 -3 4 -41 7 -85 7 -44 1 -96 2 -115 3 -36 3 -219 -14
-345 -30 -125 -17 -260 -85 -340 -172 -38 -42 -123 -149 -139 -176 -19 -33 7
-6 60 62 56 71 78 90 72 63 -1 -7 3 -22 9 -33 29 -54 26 -80 -22 -165 -49 -86
-113 -219 -135 -282 -17 -45 -28 -39 -62 35 -34 71 -30 119 15 201 20 36 35
66 32 66 -8 0 -135 -219 -173 -301 -82 -174 -192 -451 -192 -484 0 -9 -4 -14
-9 -11 -38 24 -90 -582 -74 -854 5 -69 5 -154 2 -190 -4 -50 -6 -56 -8 -25 -1
22 -6 60 -11 85 -7 34 -8 22 -4 -50 2 -52 11 -124 19 -159 9 -36 26 -139 39
-230 33 -225 89 -395 148 -450 12 -12 19 -23 16 -26 -14 -14 -117 118 -160
206 -26 51 -48 91 -48 88 0 -4 9 -49 19 -101 23 -110 52 -190 110 -305 23 -46
38 -83 33 -83 -14 0 -113 177 -144 257 -16 43 -47 98 -68 123 -75 91 -127 221
-156 391 -13 80 -16 141 -12 288 6 207 -1 241 -48 241 -13 0 -27 -7 -30 -15
-4 -8 -10 -13 -14 -10 -9 6 -20 -44 -20 -91 0 -18 -4 -35 -8 -38 -5 -3 -30 1
-58 8 -49 12 -49 12 -56 62 -3 27 -7 82 -7 122 -1 60 -5 76 -23 94 -14 14 -18
23 -10 26 17 5 15 52 -3 58 -8 4 -15 12 -15 19 0 12 -21 25 -41 25 -5 0 -9
-452 -9 -1134 l0 -1134 330 -1 329 -1 48 51 c26 28 48 57 48 63 1 6 7 10 13 8
7 -1 20 4 28 12 16 17 19 30 4 21 -6 -3 -7 1 -4 10 5 12 9 13 20 4 12 -10 13
-8 8 6 -6 14 -3 16 14 10 20 -6 22 -2 23 32 1 21 1 69 -1 106 -2 59 1 73 24
108 15 22 24 45 20 51 -4 6 -3 8 3 5 6 -4 21 5 34 20 13 14 50 44 81 67 l56
42 -29 19 c-37 25 -37 34 1 33 23 -1 30 -6 30 -22 0 -17 4 -14 16 11 l16 33
28 -20 c26 -18 27 -21 18 -77 -4 -32 -12 -74 -17 -93 -7 -31 -9 -33 -17 -14
-9 19 -11 18 -39 -15 l-30 -35 28 19 c33 21 36 19 47 -31 6 -27 5 -48 -5 -71
-15 -35 -95 -122 -95 -103 0 21 -20 -1 -21 -23 -1 -15 -5 -9 -13 18 l-13 40
-6 -49 c-4 -27 -7 -70 -7 -95 l-1 -46 -25 40 c-24 38 -25 38 -19 10 11 -48 15
-105 7 -103 -11 3 -52 -22 -52 -32 0 -6 83 -10 215 -10 205 0 215 1 225 20 6
11 15 18 21 15 5 -4 9 0 9 7 0 14 34 48 48 48 4 0 12 10 17 22 6 13 18 24 28
26 15 3 17 -5 17 -67 0 -39 4 -71 10 -71 5 0 7 21 3 49 -10 84 1 111 79 197
40 44 75 78 79 77 7 -2 49 108 51 134 1 9 5 10 14 2 9 -7 19 -7 34 1 19 10 22
9 27 -10 6 -22 7 -21 20 6 7 16 11 21 8 10 -11 -39 -35 -218 -35 -262 l0 -46
75 67 c45 41 79 64 86 59 7 -4 9 -3 6 3 -9 15 19 36 35 27 7 -4 10 -3 5 1 -4
5 3 19 15 32 24 26 43 31 35 8 -7 -17 9 -30 18 -15 3 5 12 10 18 10 7 0 4 -7
-6 -14 -15 -12 -16 -18 -7 -35 10 -20 7 -25 -13 -22 -5 1 -6 -3 -3 -8 3 -5 -6
-19 -21 -31 -35 -27 -8 -14 32 16 17 12 36 24 44 26 7 2 34 24 59 51 24 26 49
47 55 47 6 0 -2 -13 -17 -29 -18 -19 -26 -36 -22 -46 3 -9 2 -14 -3 -11 -5 3
-12 -18 -15 -46 -4 -28 -11 -59 -16 -69 -5 -9 -10 -48 -11 -86 -1 -63 -3 -69
-24 -71 -12 -1 -33 -6 -46 -11 -16 -6 92 -10 314 -10 187 -1 337 3 337 7 0 12
97 62 120 62 11 0 22 5 25 10 3 5 17 10 31 10 13 0 24 4 24 8 0 4 27 14 60 20
32 7 66 20 75 28 8 8 15 12 15 9 0 -4 17 7 38 23 20 16 56 39 80 51 43 22 56
35 25 25 -15 -5 -15 -4 -3 4 8 7 19 7 25 2 6 -5 17 -5 25 2 12 8 12 9 -2 4
-10 -3 -18 -1 -18 4 0 10 20 14 53 12 10 -1 16 2 13 7 -3 5 18 17 47 28 55 20
55 18 41 93 l-6 35 26 -34 c14 -19 46 -54 70 -78 25 -24 68 -70 97 -103 28
-33 56 -57 62 -53 5 3 8 2 4 -3 -3 -5 17 -38 44 -74 27 -36 52 -73 55 -82 5
-17 30 -18 340 -18 l334 0 0 745 0 745 -24 0 c-34 0 -56 10 -56 26 0 8 -6 11
-17 7 -11 -4 -14 -3 -9 5 11 18 -5 14 -19 -4 -9 -13 -21 -15 -52 -9 -39 6 -42
9 -48 48 -12 71 -41 80 -60 19 -6 -20 -11 -22 -36 -17 -54 12 -85 -2 -95 -43
-8 -32 -13 -37 -34 -34 -14 2 -29 8 -34 13 -5 4 -13 61 -18 126 -4 65 -13 145
-19 177 -10 59 -71 278 -90 326 -7 19 -4 46 11 105 12 44 32 123 46 174 34
133 55 312 57 476 l2 140 11 -70 c6 -38 12 -58 13 -42 0 15 5 27 9 27 14 0 48
-29 35 -30 -7 0 -13 -5 -13 -11 0 -6 9 -8 21 -4 11 4 34 1 50 -5 25 -11 32
-10 49 5 16 14 20 15 20 4 0 -8 -5 -20 -10 -25 -8 -8 -6 -15 5 -24 10 -8 15
-9 15 -1 0 6 7 11 15 11 8 0 15 -4 15 -10 0 -14 27 -12 34 3 4 6 4 2 2 -10 -3
-16 2 -24 16 -28 15 -5 17 -10 7 -21 -9 -11 -8 -14 5 -14 9 0 16 7 16 16 0 14
2 14 16 3 10 -8 12 -15 5 -17 -20 -7 -11 -19 39 -53 28 -19 53 -44 56 -56 4
-13 11 -23 17 -23 6 0 19 -7 29 -17 17 -16 18 12 18 865 l0 882 -802 -1 c-571
0 -796 -3 -778 -11 167 -70 400 -205 334 -193 -12 2 -57 21 -100 43 -203 101
-413 139 -630 112 -103 -13 -140 -9 -93 9 107 40 166 38 -1109 40 l-1203 2 2
-485z m2057 467 c-10 -2 -28 -2 -40 0 -13 2 -5 4 17 4 22 1 32 -1 23 -4z m55
0 c-7 -2 -19 -2 -25 0 -7 3 -2 5 12 5 14 0 19 -2 13 -5z m1417 -27 c0 -3 -4
-8 -10 -11 -5 -3 -10 -1 -10 4 0 6 5 11 10 11 6 0 10 -2 10 -4z m-417 -307
l14 -29 25 20 c73 56 218 86 276 56 31 -16 32 -19 32 -79 0 -69 -8 -109 -20
-102 -5 3 -6 -3 -3 -14 7 -26 -26 -36 -44 -14 -14 17 -14 17 -9 -1 4 -12 -2
-26 -20 -43 -14 -13 -23 -27 -20 -30 3 -4 15 3 26 15 12 12 26 22 32 22 19 0
-57 -54 -113 -80 -29 -14 -61 -32 -70 -41 -9 -10 -31 -20 -47 -24 -17 -3 -29
-12 -27 -18 18 -59 16 -67 -14 -67 -16 0 -32 -4 -36 -9 -3 -5 -17 -6 -33 -2
-19 6 -39 2 -67 -11 -37 -18 -29 -18 34 -1 19 5 22 3 16 -8 -8 -12 -6 -12 8 0
10 8 17 9 17 3 0 -6 -4 -14 -10 -17 -5 -3 -10 -11 -10 -17 0 -6 12 -1 26 13
25 23 26 23 15 2 -17 -32 -13 -41 6 -14 16 23 17 23 24 5 6 -16 8 -15 8 8 1
32 20 41 44 20 9 -8 20 -12 24 -9 4 4 -2 14 -13 22 -16 13 -17 16 -4 25 10 6
11 10 3 10 -7 0 -13 9 -13 20 0 11 4 20 8 20 14 0 32 -49 32 -87 0 -40 7 -41
13 -2 2 13 10 24 18 24 8 0 17 4 20 8 3 4 27 -2 54 -13 36 -16 45 -17 35 -5
-20 25 12 19 93 -16 68 -29 137 -81 137 -103 0 -5 -3 -7 -6 -3 -4 3 -12 0 -20
-8 -8 -8 -33 -12 -64 -12 l-51 2 8 -30 c6 -28 8 -66 4 -146 0 -16 -5 -28 -10
-24 -5 3 -12 1 -15 -4 -13 -20 24 -19 38 1 9 12 19 18 23 14 4 -4 1 -13 -8
-19 -18 -14 -30 -42 -22 -51 3 -3 15 6 25 20 24 29 35 26 18 -6 -11 -20 -10
-21 10 -10 14 7 19 17 15 29 -4 15 -1 17 20 13 15 -2 25 0 25 7 0 6 7 11 16
11 8 0 12 -5 9 -10 -4 -7 3 -8 20 -4 18 4 30 2 36 -7 9 -16 14 -12 23 19 5 15
3 22 -6 22 -8 0 -14 9 -14 20 0 11 7 20 14 20 8 0 12 -6 9 -15 -4 -8 -2 -17 3
-20 10 -6 14 8 11 34 -2 7 2 10 8 6 15 -9 14 -42 -1 -48 -7 -2 -9 -8 -5 -13 5
-5 13 -1 18 9 6 9 18 17 27 17 13 0 14 -2 4 -9 -11 -7 -10 -9 3 -15 15 -5 15
-8 -2 -31 -10 -13 -25 -25 -33 -26 -8 0 0 -5 18 -10 28 -8 46 -29 24 -29 -12
0 -12 -39 -1 -46 6 -4 5 -11 -2 -21 -10 -12 -10 -16 2 -24 11 -7 10 -9 -6 -10
-17 -1 -17 -2 -2 -6 9 -2 15 -8 12 -13 -3 -4 -15 -6 -27 -2 -14 3 -19 2 -14
-6 12 -20 -3 -33 -24 -22 -13 7 -21 7 -26 -2 -4 -6 -3 -8 3 -5 14 9 37 -19 28
-33 -5 -9 -10 -9 -18 -1 -13 13 -31 15 -23 2 8 -12 -40 -54 -53 -47 -7 5 -8 0
-4 -11 3 -10 3 -15 -2 -11 -4 4 -14 3 -22 -3 -7 -6 -21 -9 -32 -6 -14 3 -17 0
-14 -14 3 -11 9 -22 14 -25 5 -3 9 -10 9 -16 0 -6 -16 2 -36 17 -35 27 -35 27
-41 6 -5 -18 -11 -21 -34 -16 -18 4 -29 2 -29 -4 0 -6 5 -11 10 -11 6 0 10 -5
10 -11 0 -6 -5 -7 -12 -2 -21 13 -42 13 -50 0 -6 -9 -8 -9 -8 1 0 6 -9 12 -19
12 -14 0 -18 -5 -14 -19 6 -24 -56 -143 -70 -134 -5 3 -7 1 -4 -4 4 -6 0 -26
-8 -46 -13 -32 -13 -35 8 -54 38 -34 78 -55 93 -49 8 3 14 19 14 40 0 19 5 38
10 41 13 8 13 -90 0 -116 -16 -28 -30 -24 -108 33 -59 42 -72 56 -72 79 0 15
6 34 13 41 20 20 52 69 76 113 15 28 21 34 22 20 0 -20 0 -20 9 0 12 28 12 37
0 30 -7 -4 -8 3 -4 22 5 23 4 26 -7 16 -18 -17 -29 -16 -29 3 0 8 -5 12 -11 9
-5 -4 -18 -1 -27 7 -9 8 -31 20 -49 27 -28 11 -31 17 -26 41 4 23 1 29 -17 35
-16 5 -20 12 -16 28 3 13 -1 25 -12 33 -15 12 -14 13 13 14 17 1 24 4 17 7 -6
2 -10 8 -7 13 2 4 -4 15 -15 25 -27 24 -25 35 6 35 21 0 25 4 19 18 -13 33
-10 37 23 34 30 -3 32 -1 27 20 -5 18 0 27 23 40 16 10 31 15 34 13 3 -3 4 4
3 16 -1 12 -18 35 -39 53 -27 22 -42 47 -56 91 l-19 60 6 -48 c8 -67 -33 -148
-94 -187 -41 -26 -50 -28 -154 -28 l-110 0 7 92 c4 50 13 109 21 130 17 51 59
106 81 107 9 0 -15 8 -54 18 -68 17 -125 46 -151 79 -31 38 1 117 62 153 l34
20 -34 48 c-45 63 -69 129 -54 147 28 34 198 6 282 -46 43 -27 48 -28 42 -10
-4 11 1 46 10 77 9 31 14 65 11 76 -4 16 0 15 24 -8 16 -15 35 -41 43 -56z
m-663 31 c8 -5 11 -12 8 -16 -4 -3 -14 1 -23 10 -18 17 -9 21 15 6z m30 -50
c0 -5 -7 -10 -15 -10 -8 0 -15 5 -15 10 0 6 7 10 15 10 8 0 15 -4 15 -10z
m164 -50 c5 -5 5 -17 1 -27 -5 -12 -9 -14 -12 -5 -3 6 -9 10 -13 7 -5 -3 -12
0 -16 6 -4 8 -3 9 4 5 7 -4 12 -2 12 3 0 6 -9 11 -19 11 -11 0 -23 5 -27 12
-8 13 55 3 70 -12z m-43 -47 c10 -11 10 -14 2 -9 -7 4 -13 3 -13 -3 0 -5 8
-12 18 -15 9 -3 0 -4 -20 -1 -39 4 -47 -2 -26 -23 24 -24 -46 -13 -77 13 -34
27 -32 28 55 29 30 1 44 5 43 14 -4 17 2 15 18 -5z m981 -115 c43 -16 80 -33
83 -38 17 -27 -93 -166 -122 -155 -7 2 -12 -1 -10 -7 1 -6 -10 -14 -25 -18
-30 -9 -68 -3 -68 10 0 4 -17 12 -37 18 -38 9 -38 9 -13 20 23 10 20 11 -25
12 -38 2 -44 4 -25 9 22 6 20 8 -20 15 -40 8 -42 9 -20 16 14 5 51 8 83 9 31
1 57 6 57 11 0 6 -26 10 -57 10 -77 0 -96 12 -53 34 37 18 53 21 30 5 -11 -7
0 -9 40 -5 30 3 56 5 58 6 1 0 2 5 2 11 0 7 -9 9 -21 6 -12 -3 -28 0 -36 8
-11 12 -10 16 9 26 21 11 22 11 9 -4 -9 -11 -10 -17 -2 -17 6 0 12 6 12 13 1
6 2 17 4 22 1 6 3 13 3 17 3 12 60 -2 144 -34z m-385 -124 c-3 -3 -12 -4 -19
-1 -8 3 -5 6 6 6 11 1 17 -2 13 -5z m-1932 -151 c15 -37 15 -41 -26 -158 -23
-66 -46 -124 -50 -129 -17 -19 -44 -14 -76 15 -35 30 -63 38 -63 17 0 -6 -2
-9 -5 -6 -3 3 8 43 25 90 29 83 59 143 131 258 l34 55 7 -53 c4 -29 15 -69 23
-89z m2038 130 c-7 -2 -19 -2 -25 0 -7 3 -2 5 12 5 14 0 19 -2 13 -5z m41 -32
c38 -15 -10 -20 -50 -6 l-39 14 35 0 c19 0 44 -4 54 -8z m565 -64 c0 -9 -2 -8
-6 1 -2 6 -10 9 -15 6 -7 -4 -8 -2 -4 5 9 13 26 5 25 -12z m-2977 -129 c-7 -7
-12 -8 -12 -2 0 14 12 26 19 19 2 -3 -1 -11 -7 -17z m2718 -13 c0 -13 8 -29
18 -34 16 -10 16 -10 -1 -11 -10 0 -16 -4 -12 -9 3 -5 1 -12 -4 -15 -5 -3 -11
1 -14 8 -3 8 -2 16 3 18 14 5 -1 58 -17 58 -13 0 -13 -3 -3 -15 11 -13 10 -14
-4 -9 -9 3 -16 1 -16 -5 0 -6 5 -11 10 -11 6 0 10 -4 10 -10 0 -5 -7 -10 -15
-10 -15 0 -20 26 -9 54 3 9 17 16 30 16 19 0 24 -5 24 -25z m-2295 -32 l47
-48 -7 -55 c-3 -30 -11 -89 -16 -131 -10 -73 -12 -76 -35 -71 -13 2 -38 21
-56 41 -18 20 -36 35 -40 34 -4 -2 -8 -2 -8 0 0 31 58 277 65 277 2 0 24 -21
50 -47z m2205 7 c0 -5 -2 -10 -4 -10 -3 0 -8 5 -11 10 -3 6 -1 10 4 10 6 0 11
-4 11 -10z m-3250 -14 c0 -3 -4 -8 -10 -11 -5 -3 -10 -1 -10 4 0 6 5 11 10 11
6 0 10 -2 10 -4z m1804 -56 c3 -22 4 -52 1 -65 -3 -14 -7 -36 -10 -50 -5 -24
-52 -75 -69 -75 -5 0 -18 -7 -28 -17 -17 -15 -18 -12 -18 89 l0 105 53 26 c28
14 55 26 58 27 4 0 9 -18 13 -40z m1470 34 c9 -3 16 -14 16 -23 0 -12 -2 -13
-8 -3 -5 7 -15 11 -23 9 -8 -2 -11 -2 -6 0 4 3 5 9 1 14 -6 11 -2 11 20 3z
m-54 -19 c0 -8 -2 -15 -4 -15 -2 0 -6 7 -10 15 -3 8 -1 15 4 15 6 0 10 -7 10
-15z m107 -72 c-4 -3 -13 2 -22 11 -17 17 -70 23 -61 7 3 -5 15 -7 26 -4 11 3
20 0 20 -6 0 -6 -10 -11 -22 -11 -13 0 -34 -3 -48 -6 -14 -3 -21 -2 -15 3 6 4
15 17 21 28 8 13 22 20 42 20 17 0 30 2 30 5 -3 37 6 38 19 2 8 -24 13 -46 10
-49z m66 80 c-7 -2 -19 -2 -25 0 -7 3 -2 5 12 5 14 0 19 -2 13 -5z m-2224 -38
c16 -14 33 -35 36 -45 4 -14 15 -20 34 -20 15 0 31 -4 37 -9 5 -4 41 -16 80
-25 83 -19 104 -14 252 57 l52 25 0 -88 c0 -92 -6 -124 -21 -114 -5 3 -12 -2
-15 -10 -8 -22 -67 -56 -95 -56 -13 0 -36 -13 -51 -28 -25 -28 -85 -52 -125
-52 -11 0 -38 18 -59 40 -43 44 -60 49 -69 21 -4 -15 -13 -19 -37 -15 -18 2
-36 10 -41 19 -4 8 -12 13 -16 11 -16 -10 -33 95 -27 162 11 114 18 152 26
152 5 0 22 -11 39 -25z m-293 -402 c1 -21 2 -85 4 -143 l3 -105 -49 -16 c-27
-9 -63 -19 -81 -22 l-31 -6 17 49 c18 52 34 78 24 41 -3 -12 -3 -21 -1 -21 6
0 43 102 53 145 6 26 51 115 59 115 1 0 2 -17 2 -37z m1058 -212 c9 -24 15
-45 14 -47 -5 -4 -92 21 -109 31 -12 7 -15 19 -12 42 3 18 9 31 13 28 10 -6
20 56 21 135 l1 65 28 -105 c16 -58 36 -125 44 -149z m1916 195 c0 -2 -7 -6
-15 -10 -8 -3 -15 -1 -15 4 0 6 7 10 15 10 8 0 15 -2 15 -4z m-566 -85 c-2 -3
-12 3 -22 13 -16 17 -16 18 5 5 12 -7 20 -15 17 -18z m-2493 -24 c-10 -9 -11
-8 -5 6 3 10 9 15 12 12 3 -3 0 -11 -7 -18z m2516 8 c0 -8 -4 -12 -9 -9 -5 3
-6 10 -3 15 9 13 12 11 12 -6z m52 -31 c5 3 19 -2 30 -12 19 -14 20 -20 9 -34
-12 -16 -16 -14 -48 25 -19 23 -27 36 -18 29 10 -8 21 -11 27 -8z m-2582 -16
c-3 -8 -6 -5 -6 6 -1 11 2 17 5 13 3 -3 4 -12 1 -19z m2497 -94 c13 -43 13
-47 1 -30 -8 11 -15 28 -15 37 0 10 -3 26 -7 36 -3 10 -3 15 0 12 4 -3 13 -28
21 -55z m-1244 11 c1 10 29 -35 30 -47 0 -3 -9 -4 -20 -1 -11 3 -20 11 -20 18
0 8 -3 22 -6 32 -5 15 -4 15 5 3 6 -8 11 -10 11 -5z m1168 -39 c25 -55 38 -63
64 -39 20 18 21 18 13 -7 -8 -27 -31 -50 -52 -50 -26 0 -68 94 -56 126 8 21
10 18 31 -30z m164 -26 c4 0 8 -9 8 -20 0 -29 -32 -25 -61 7 -13 14 -19 23
-12 19 8 -4 7 2 -2 21 -24 45 -17 48 22 9 21 -20 41 -36 45 -36z m-1464 49
c58 -14 63 -20 92 -94 26 -64 96 -213 85 -180 -12 38 -56 228 -53 230 2 2 13
-1 24 -5 13 -5 35 -35 53 -71 40 -80 93 -150 109 -144 15 5 122 -73 122 -90 0
-6 9 -20 19 -29 19 -17 20 -17 24 6 2 13 5 2 6 -24 l1 -47 -32 10 c-57 16 -88
31 -88 43 0 7 -25 11 -66 12 -36 1 -70 6 -75 11 -12 12 -178 -3 -249 -23 -59
-17 -145 -62 -136 -72 3 -3 -6 -21 -21 -40 -22 -30 -24 -34 -7 -27 51 22 151
55 170 55 31 0 34 -8 20 -53 -7 -23 -12 -62 -12 -87 1 -42 3 -45 26 -42 15 2
34 -6 48 -18 12 -11 22 -16 22 -10 0 6 5 8 10 5 6 -3 10 -2 10 4 0 6 11 13 25
17 13 3 24 9 23 13 -3 25 3 33 16 22 10 -9 16 -9 21 -1 20 33 102 -33 89 -72
-3 -10 -1 -18 5 -18 6 0 11 5 11 10 0 6 5 10 11 10 7 0 9 -10 5 -26 -5 -18 -3
-24 5 -19 13 9 3 -31 -14 -55 -6 -8 1 -4 17 10 35 31 65 89 68 131 3 27 -3 37
-32 57 -19 14 -26 21 -15 17 11 -5 34 -9 50 -10 30 -3 31 -1 27 34 l-4 36 31
-29 c34 -32 39 -63 21 -126 -9 -33 -5 -30 58 39 38 41 73 72 79 68 9 -6 23
-87 27 -154 0 -11 5 -19 10 -16 4 3 5 -5 0 -18 -4 -13 -8 -44 -10 -69 -1 -25
-4 -72 -8 -105 -3 -33 -4 -55 -1 -50 9 20 78 352 90 435 3 24 10 49 14 55 5 5
11 32 14 58 2 27 9 53 15 59 13 13 92 -136 92 -174 0 -32 19 -78 32 -78 5 0
36 27 67 60 50 52 63 60 94 60 36 0 36 0 25 30 -8 26 -7 34 7 50 28 31 55 26
55 -10 0 -16 4 -30 10 -30 5 0 7 -7 4 -15 -4 -8 -10 -12 -15 -9 -18 11 -9 -23
11 -41 11 -10 22 -26 25 -36 4 -11 9 -17 13 -15 9 5 12 -29 14 -130 1 -99 -15
-137 -86 -201 -70 -63 -240 -189 -290 -215 -48 -25 -107 -27 -138 -5 -22 14
-25 13 -67 -26 -26 -25 -41 -34 -37 -24 3 11 8 31 11 45 5 23 4 24 -5 7 -5
-11 -19 -45 -30 -76 -17 -47 -24 -56 -40 -52 -11 3 -20 0 -20 -6 0 -6 -7 -11
-16 -11 -9 0 -14 -6 -11 -13 3 -8 -1 -14 -9 -14 -8 0 -14 7 -15 16 -1 9 -5 -2
-10 -24 -5 -22 -18 -47 -29 -57 -11 -9 -15 -18 -10 -20 16 -5 -54 -210 -111
-323 -56 -110 -145 -234 -223 -309 -61 -58 -32 -41 48 28 34 30 55 55 51 63
-2 8 -1 12 4 9 11 -7 64 52 121 137 25 36 47 67 50 67 9 0 42 -120 37 -133 -2
-7 -110 -83 -238 -169 -203 -135 -327 -226 -443 -323 -17 -13 -31 -24 -32 -22
-4 4 64 312 75 342 24 62 56 117 93 157 32 35 41 40 49 28 18 -27 -1 31 -35
102 l-32 67 36 14 c19 9 73 29 120 47 96 36 315 140 345 164 11 9 -38 -13
-110 -48 -186 -92 -547 -226 -608 -226 -33 0 -143 57 -307 159 -191 118 -274
183 -326 253 -40 54 -79 148 -89 214 -3 16 -11 53 -19 82 -8 29 -17 70 -19 90
-3 20 -30 97 -61 170 -53 124 -93 248 -83 258 2 2 30 -32 62 -76 31 -45 59
-79 60 -78 2 2 -6 36 -16 77 -10 40 -16 78 -13 83 9 15 86 48 112 48 19 0 22
-5 23 -42 1 -55 22 -134 34 -131 6 1 18 5 27 8 16 7 17 4 4 -39 -11 -35 -11
-46 -2 -46 7 0 22 -21 33 -47 12 -27 29 -57 38 -68 10 -13 9 -6 -5 20 -11 22
-20 43 -20 46 0 4 13 21 29 38 20 21 27 38 24 52 -7 24 15 69 33 69 6 0 15 -7
18 -16 10 -25 7 -64 -5 -64 -5 0 -7 -5 -3 -12 6 -9 9 -9 12 0 7 21 32 13 33
-10 1 -21 2 -20 13 6 15 33 26 23 36 -34 6 -31 8 -27 15 34 7 65 6 71 -14 88
-13 9 -20 22 -16 28 4 6 14 2 27 -12 18 -21 19 -21 12 -3 -4 11 -7 31 -6 45 0
15 -15 43 -36 70 -21 24 -36 48 -34 53 1 5 -1 6 -6 4 -4 -3 -17 2 -29 11 l-22
17 20 25 c11 14 19 21 18 15 -3 -22 2 -36 10 -30 5 3 8 19 6 35 -6 47 13 45
24 -2 11 -47 10 -36 -4 185 -4 62 -3 87 4 82 6 -3 11 -20 11 -36 0 -17 4 -28
9 -25 5 4 7 -2 5 -11 -3 -10 2 -36 11 -58 8 -22 13 -29 10 -15 -14 67 -14 73
-2 40 10 -24 16 -30 20 -20 3 8 3 0 0 -19 -4 -24 -3 -32 5 -27 8 5 12 -1 13
-16 0 -13 4 -32 9 -43 6 -13 7 -1 5 36 -2 30 1 62 6 70 6 10 9 4 10 -21 0 -29
2 -31 9 -15 5 11 9 14 9 8 1 -8 14 -13 32 -13 17 0 39 -4 49 -10 33 -17 201
-28 215 -13 16 16 24 -2 26 -55 1 -33 2 -31 11 16 9 52 10 53 29 36 16 -14 19
-15 24 -2 11 27 35 16 36 -16 1 -23 6 -13 20 39 l19 70 -4 -80 c-2 -59 -1 -74
6 -55 6 14 10 37 10 53 0 15 3 25 8 22 5 -3 14 3 20 12 9 15 10 11 6 -17 l-5
-35 11 33 c7 21 17 32 31 32 17 0 18 -5 14 -37 -4 -27 -1 -21 13 22 11 33 25
97 32 143 13 92 12 91 96 71z m-989 -130 c12 -67 31 -147 41 -177 11 -31 19
-57 17 -58 -1 -1 -34 6 -73 16 -39 10 -93 19 -120 21 -27 1 -54 6 -61 11 -8 7
-10 3 -6 -10 4 -16 -5 -22 -58 -35 -35 -9 -65 -15 -66 -13 -2 2 12 36 30 77
19 41 49 110 67 154 17 44 36 84 40 89 13 13 111 45 141 46 25 0 26 -3 48
-121z m1110 16 l0 -20 -9 20 c-5 11 -9 29 -9 40 l0 20 9 -20 c5 -11 9 -29 9
-40z m1136 -185 c5 -18 3 -22 -5 -14 -15 15 -21 48 -26 139 l-4 80 15 -90 c8
-49 17 -101 20 -115z m-1121 144 c3 -8 2 -12 -4 -9 -6 3 -10 10 -10 16 0 14 7
11 14 -7z m1046 -76 c0 -57 -10 -71 -43 -62 -38 9 -37 55 1 83 38 29 42 27 42
-21z m237 12 l16 23 14 -27 c13 -24 15 -25 30 -11 24 24 38 3 39 -58 1 -29 4
-63 7 -77 3 -14 8 -47 11 -75 l5 -50 -20 38 c-11 22 -27 37 -38 37 -28 0 -30
-8 -10 -48 25 -49 24 -83 -4 -107 l-24 -20 25 -47 c22 -43 52 -65 52 -38 0 6
-8 10 -17 10 -13 0 -14 3 -5 12 17 17 31 -1 39 -48 3 -21 11 -46 18 -54 15
-18 3 -57 -20 -66 -22 -9 -19 -17 20 -58 37 -40 42 -55 24 -73 -9 -9 -8 -18 5
-37 9 -14 16 -34 16 -46 0 -17 -6 -20 -45 -20 -25 0 -45 -4 -45 -10 0 -5 7 -7
15 -4 19 8 20 -22 3 -78 -10 -36 -36 -58 -67 -58 -10 0 -91 77 -91 87 0 4 18
21 40 37 43 32 49 46 25 66 -22 18 -18 33 11 51 l27 16 -32 28 c-37 34 -37 36
-9 91 l22 44 -24 25 c-21 23 -23 29 -11 47 11 18 9 24 -23 53 -38 35 -42 45
-25 62 7 7 3 21 -15 48 -39 57 -31 72 19 39 15 -10 25 -12 25 -5 0 6 -4 11 -9
11 -5 0 -17 22 -26 49 -13 40 -14 53 -3 76 11 25 10 29 -10 43 -32 21 -30 70
3 78 20 5 25 13 26 38 0 30 1 30 10 7 l10 -25 16 24z m-2307 -95 c0 -8 -5 -15
-11 -15 -6 0 -9 -7 -5 -15 3 -8 1 -15 -3 -15 -15 0 -22 32 -10 46 15 18 29 18
29 -1z m1990 -5 c0 -5 -4 -10 -10 -10 -5 0 -10 -7 -10 -15 0 -8 5 -15 10 -15
6 0 9 6 8 13 -2 6 2 11 9 10 8 -2 10 4 6 15 -5 13 -3 14 7 5 10 -9 8 -17 -9
-41 -24 -34 -70 -49 -101 -32 -20 10 -18 13 27 45 52 36 63 40 63 25z m194
-62 c7 -18 6 -35 -2 -53 l-12 -25 -26 22 c-39 35 -47 54 -28 73 24 23 57 15
68 -17z m-2594 -48 c0 -20 -19 -39 -21 -21 -1 6 -2 17 -3 24 -3 18 4 28 15 22
5 -4 9 -15 9 -25z m364 9 c5 -5 -5 -4 -24 1 -18 5 -35 12 -39 16 -9 9 53 -7
63 -17z m1443 -21 c-3 -7 -5 -2 -5 12 0 14 2 19 5 13 2 -7 2 -19 0 -25z m-394
5 c-7 -2 -19 -2 -25 0 -7 3 -2 5 12 5 14 0 19 -2 13 -5z m67 -9 c0 -8 -4 -12
-10 -9 -5 3 -10 10 -10 16 0 5 5 9 10 9 6 0 10 -7 10 -16z m-1080 -34 c28 -15
38 -25 33 -36 -8 -22 -79 -13 -98 13 -35 45 -1 57 65 23z m1448 14 c12 -4 22
-10 22 -15 0 -10 -45 -2 -70 12 -12 7 -11 8 5 9 11 0 30 -3 43 -6z m-298 -23
c15 -4 20 -10 13 -14 -6 -4 -9 -17 -5 -29 4 -18 2 -20 -14 -14 -10 4 -32 10
-47 13 -27 6 -52 34 -40 47 8 8 60 6 93 -3z m65 -21 c3 -6 -1 -7 -9 -4 -18 7
-21 14 -7 14 6 0 13 -4 16 -10z m925 1 c0 -13 -31 -43 -38 -36 -3 3 3 14 14
24 22 23 24 24 24 12z m-2790 -346 c7 -20 10 -38 7 -41 -8 -8 -47 124 -62 212
-25 146 -15 147 15 2 15 -75 33 -153 40 -173z m305 13 l27 -43 -29 30 c-16 16
-30 36 -30 42 0 19 2 17 32 -29z m1592 -860 c-3 -8 -6 -5 -6 6 -1 11 2 17 5
13 3 -3 4 -12 1 -19z m1028 -138 c-9 -18 -19 -30 -21 -27 -3 3 2 19 11 37 9
18 19 30 21 27 3 -3 -2 -19 -11 -37z m-3508 14 c-3 -3 -12 -4 -19 -1 -8 3 -5
6 6 6 11 1 17 -2 13 -5z m584 -39 c5 4 6 -1 2 -10 -5 -13 -7 -14 -14 -3 -5 7
-8 18 -8 23 0 6 3 4 6 -3 2 -6 9 -10 14 -7z m329 -35 c0 -5 -2 -10 -4 -10 -3
0 -8 5 -11 10 -3 6 -1 10 4 10 6 0 11 -4 11 -10z m57 -11 c70 -39 67 -50 -9
-29 -27 8 -36 16 -35 30 2 24 -2 24 44 -1z m2483 1 c0 -12 -30 -28 -88 -46
-56 -17 -65 -17 -57 -4 3 6 -1 10 -9 10 -9 0 -16 5 -16 11 0 6 7 8 16 5 8 -3
12 -2 9 3 -3 6 16 13 42 16 27 4 53 8 58 10 21 7 45 5 45 -5z m-2783 -52 c-3
-8 -6 -5 -6 6 -1 11 2 17 5 13 3 -3 4 -12 1 -19z m2573 12 c13 -8 13 -10 -2
-10 -9 0 -20 5 -23 10 -8 13 5 13 25 0z m200 -20 c0 -5 -8 -10 -18 -10 -10 0
-22 -4 -27 -9 -17 -15 -55 -23 -55 -12 0 6 8 11 19 11 10 0 32 7 47 15 34 18
34 18 34 5z m-1806 -196 c3 -8 2 -12 -4 -9 -6 3 -10 10 -10 16 0 14 7 11 14
-7z m-817 -10 c-3 -3 -12 -4 -19 -1 -8 3 -5 6 6 6 11 1 17 -2 13 -5z m1168
-54 c-3 -5 -16 -15 -28 -21 -19 -9 -19 -8 3 10 28 23 34 26 25 11z m-5 -105
c0 -8 -4 -15 -10 -15 -5 0 -7 7 -4 15 4 8 8 15 10 15 2 0 4 -7 4 -15z m-1560
-145 c0 -5 -4 -10 -10 -10 -5 0 -10 5 -10 10 0 6 5 10 10 10 6 0 10 -4 10 -10z
m34 -6 c3 -8 2 -12 -4 -9 -6 3 -10 10 -10 16 0 14 7 11 14 -7z m-241 -84 c3
-11 1 -18 -4 -14 -5 3 -9 12 -9 20 0 20 7 17 13 -6z m-73 0 c0 -5 -5 -10 -11
-10 -5 0 -7 5 -4 10 3 6 8 10 11 10 2 0 4 -4 4 -10z"/>
<path d="M3437 3933 c-4 -3 -7 -11 -7 -17 0 -6 5 -5 12 2 6 6 9 14 7 17 -3 3
-9 2 -12 -2z"/>
<path d="M3152 3830 c0 -14 2 -19 5 -12 2 6 2 18 0 25 -3 6 -5 1 -5 -13z"/>
<path d="M3255 3811 c-11 -5 -29 -19 -40 -31 l-20 -23 20 11 c23 13 72 52 65
51 -3 0 -14 -4 -25 -8z"/>
<path d="M3308 3803 c7 -3 16 -2 19 1 4 3 -2 6 -13 5 -11 0 -14 -3 -6 -6z"/>
<path d="M3280 3789 c0 -5 -16 -17 -35 -26 -30 -14 -47 -33 -30 -33 8 0 105
50 105 54 0 2 -9 6 -20 9 -11 3 -20 1 -20 -4z"/>
<path d="M3176 3775 c-3 -8 -1 -15 4 -15 6 0 10 7 10 15 0 8 -2 15 -4 15 -2 0
-6 -7 -10 -15z"/>
<path d="M3023 3623 c9 -3 17 -9 17 -14 0 -6 12 -9 28 -7 44 5 31 23 -18 24
-25 1 -37 -1 -27 -3z"/>
<path d="M3439 3533 c-12 -14 -12 -15 0 -9 8 5 16 4 20 -3 5 -8 13 -7 27 4 18
13 18 14 -5 8 -17 -4 -22 -3 -17 5 11 18 -10 14 -25 -5z"/>
<path d="M3490 3510 c-16 -10 -16 -10 30 -14 10 -1 14 -10 13 -26 -2 -22 -2
-23 8 -7 8 14 7 23 -7 38 -20 22 -23 22 -44 9z"/>
<path d="M3282 3254 c10 -10 20 -16 22 -13 3 3 -5 11 -17 18 -21 13 -21 12 -5
-5z"/>
<path d="M3688 3213 c7 -3 16 -2 19 1 4 3 -2 6 -13 5 -11 0 -14 -3 -6 -6z"/>
<path d="M3630 3150 c0 -11 4 -20 9 -20 5 0 11 9 14 20 3 13 0 20 -9 20 -8 0
-14 -9 -14 -20z"/>
<path d="M3590 3143 c0 -4 5 -15 10 -23 8 -13 10 -13 10 2 0 9 -4 20 -10 23
-5 3 -10 3 -10 -2z"/>
<path d="M3690 3140 c-9 -6 -10 -10 -3 -10 6 0 15 5 18 10 8 12 4 12 -15 0z"/>
<path d="M3695 3100 c3 -5 8 -10 11 -10 2 0 4 5 4 10 0 6 -5 10 -11 10 -5 0
-7 -4 -4 -10z"/>
<path d="M3618 2996 c3 -17 7 -24 10 -16 3 8 9 17 13 20 5 3 0 11 -10 17 -15
10 -17 7 -13 -21z"/>
<path d="M3280 2735 c-6 -15 -13 -32 -16 -36 -3 -5 -3 -9 0 -9 9 0 38 61 32
67 -3 3 -10 -7 -16 -22z"/>
<path d="M2515 3870 c-3 -5 -1 -10 4 -10 6 0 11 5 11 10 0 6 -2 10 -4 10 -3 0
-8 -4 -11 -10z"/>
<path d="M3535 3775 c-16 -8 -23 -14 -14 -15 8 0 24 7 35 15 23 18 18 18 -21
0z"/>
<path d="M3558 3753 c7 -3 16 -2 19 1 4 3 -2 6 -13 5 -11 0 -14 -3 -6 -6z"/>
<path d="M3672 2738 c5 -15 28 -23 28 -10 0 5 -7 13 -16 16 -10 4 -14 1 -12
-6z"/>
<path d="M1431 2385 c1 -19 18 -51 18 -35 0 8 -4 22 -9 30 -5 8 -9 11 -9 5z"/>
<path d="M2535 2350 c10 -11 20 -20 22 -20 2 0 -1 9 -7 20 -6 11 -16 20 -22
20 -6 0 -3 -9 7 -20z"/>
<path d="M1921 2314 c0 -11 3 -14 6 -6 3 7 2 16 -1 19 -3 4 -6 -2 -5 -13z"/>
<path d="M2560 2316 c0 -17 42 -66 74 -85 46 -29 59 -26 16 3 -19 13 -47 38
-62 57 -16 18 -28 29 -28 25z"/>
<path d="M1392 2235 c0 -16 2 -22 5 -12 2 9 2 23 0 30 -3 6 -5 -1 -5 -18z"/>
<path d="M2406 1995 c-23 -24 -4 -60 24 -45 23 13 26 33 6 49 -11 9 -18 8 -30
-4z"/>
<path d="M2220 1911 c0 -4 11 -25 25 -45 14 -20 25 -41 25 -46 0 -6 5 -10 10
-10 6 0 -1 20 -15 43 -26 46 -31 62 -16 52 5 -3 12 -1 16 5 4 6 -5 10 -19 10
-14 0 -26 -4 -26 -9z"/>
<path d="M2811 1624 c0 -11 3 -14 6 -6 3 7 2 16 -1 19 -3 4 -6 -2 -5 -13z"/>
<path d="M2970 1620 c-9 -6 -10 -10 -3 -10 6 0 15 5 18 10 8 12 4 12 -15 0z"/>
<path d="M2796 1569 c-8 -42 0 -50 9 -9 4 17 5 34 2 36 -2 3 -7 -10 -11 -27z"/>
<path d="M1618 1393 c-12 -3 -18 -14 -18 -31 1 -31 28 -97 29 -70 1 26 49 57
116 76 l60 17 -45 7 c-50 7 -116 8 -142 1z"/>
<path d="M2539 1223 c-13 -15 -12 -15 11 -3 34 17 36 20 18 20 -9 0 -22 -7
-29 -17z"/>
<path d="M2287 1059 c7 -7 15 -10 18 -7 3 3 -2 9 -12 12 -14 6 -15 5 -6 -5z"/>
<path d="M2080 775 c0 -5 5 -17 10 -25 5 -8 10 -10 10 -5 0 6 -5 17 -10 25 -5
8 -10 11 -10 5z"/>
<path d="M3635 2409 c-4 -6 -5 -12 -2 -15 2 -3 7 2 10 11 7 17 1 20 -8 4z"/>
<path d="M1698 4153 c7 -3 16 -2 19 1 4 3 -2 6 -13 5 -11 0 -14 -3 -6 -6z"/>
<path d="M2114 4131 c3 -5 17 -11 31 -13 20 -4 23 -3 14 8 -12 15 -54 20 -45
5z"/>
<path d="M1953 4093 c9 -2 25 -2 35 0 9 3 1 5 -18 5 -19 0 -27 -2 -17 -5z"/>
<path d="M2030 4090 c0 -6 9 -10 20 -10 12 0 35 -7 53 -15 28 -14 29 -14 12
-1 -11 9 -24 19 -30 23 -15 12 -55 14 -55 3z"/>
<path d="M1521 4066 c2 -2 18 -6 34 -10 22 -5 26 -4 15 4 -14 9 -59 15 -49 6z"/>
<path d="M2335 3999 c-5 -5 -21 -18 -35 -30 l-25 -21 36 21 c20 12 47 21 60
21 19 0 21 2 9 10 -19 12 -32 12 -45 -1z"/>
<path d="M581 3373 c-7 -8 -11 -16 -8 -19 2 -2 10 2 17 11 17 20 9 27 -9 8z"/>
<path d="M130 3350 c0 -5 7 -7 15 -4 8 4 15 8 15 10 0 2 -7 4 -15 4 -8 0 -15
-4 -15 -10z"/>
<path d="M572 2640 c0 -14 2 -19 5 -12 2 6 2 18 0 25 -3 6 -5 1 -5 -13z"/>
<path d="M546 2477 c-10 -67 -31 -201 -47 -297 -16 -96 -30 -195 -30 -220 -2
-32 -3 -36 -6 -17 l-5 29 -19 -36 c-10 -20 -20 -44 -21 -53 -1 -10 -5 9 -9 42
-6 54 -7 52 -4 -25 1 -47 4 -92 7 -100 3 -8 3 -12 1 -7 -13 22 -22 -3 -33 -89
-15 -112 -8 -270 15 -359 18 -70 74 -187 111 -230 25 -30 25 -30 20 -5 -31
146 -40 293 -40 615 0 314 1 347 21 430 l22 90 -2 -93 c-1 -50 1 -92 5 -92 3
0 5 -44 3 -97 l-4 -98 10 75 c5 41 8 136 5 210 -2 88 -1 118 4 85 6 -35 7 -19
3 50 -2 55 0 147 7 204 6 57 9 105 7 107 -2 2 -11 -51 -21 -119z"/>
<path d="M402 2130 c0 -19 2 -27 5 -17 2 9 2 25 0 35 -3 9 -5 1 -5 -18z"/>
<path d="M1987 319 c7 -7 15 -10 18 -7 3 3 -2 9 -12 12 -14 6 -15 5 -6 -5z"/>
<path d="M1900 179 c-22 -18 -22 -19 -3 -10 12 6 25 16 28 21 9 15 3 12 -25
-11z"/>
<path d="M1815 122 c-27 -21 -54 -38 -60 -39 -10 -2 -21 -23 -11 -23 7 0 126
91 126 97 0 6 -5 3 -55 -35z"/>
<path d="M822 30 c-16 -26 -15 -30 3 -30 9 0 15 9 15 25 0 30 -2 31 -18 5z"/>
</g>
</svg>
